# xmcd CD database file
#
# Track frame offsets:
#	150
#	16260
#	32309
#	45755
#	64695
#	75317
#	92830
#	107805
#	123701
#	140621
#	152988
#	168141
#	182253
#	195648
#	209069
#	223720
#
# Disc length: 3047 seconds
#
# Revision: 0
# Processed by: cddbd v1.5.2PL0 Copyright (c) Steve Scherf et al.
# Submitted via: CDex 1.79
#
DISCID=cf0be510
DTITLE=The Hoyle Brothers - Don't Leave Yet
DYEAR=2009
DGENRE=Country
TTITLE0=How Many More Nights
TTITLE1=End Of The Road
TTITLE2=If I'm Not Drunk
TTITLE3=A Shot Of Bourbon
TTITLE4=Hope Your Mama's Proud
TTITLE5=Don't Leave Yet
TTITLE6=My Misery
TTITLE7=Hank
TTITLE8=Heavy Now Hangs The Head
TTITLE9=Anita, You're Dreaming
TTITLE10=The Woman That Passed Me By
TTITLE11=One More Day
TTITLE12=I Write You Letters
TTITLE13=Love Has Let Me Down
TTITLE14=Truck Stop Coffee
TTITLE15=The Barbeque Trail
EXTD=YEAR: 2009
EXTT0=
EXTT1=
EXTT2=
EXTT3=
EXTT4=
EXTT5=
EXTT6=
EXTT7=
EXTT8=
EXTT9=
EXTT10=
EXTT11=
EXTT12=
EXTT13=
EXTT14=
EXTT15=
PLAYORDER=
